<svg version="1.1" id="Layer_1" xmlns="http://www.w3.org/2000/svg" xmlns:xlink="http://www.w3.org/1999/xlink" x="0px" y="0px"
	 width="100%" viewBox="0 0 284 84" enable-background="new 0 0 284 84" xml:space="preserve">
<path fill="#081624" opacity="1.000000" stroke="none" 
	d="
M188.000000,85.000000 
	C125.333359,85.000000 63.166710,85.000000 1.000050,85.000000 
	C1.000033,57.000031 1.000033,29.000065 1.000017,1.000073 
	C95.666603,1.000048 190.333206,1.000048 284.999878,1.000024 
	C284.999908,28.999924 284.999908,56.999847 284.999939,84.999886 
	C252.833328,85.000000 220.666672,85.000000 188.000000,85.000000 
M243.898911,63.444508 
	C246.639420,62.414474 249.379929,61.384441 252.782654,60.131542 
	C267.355469,49.509975 266.928864,27.485832 251.492020,19.474607 
	C248.663544,18.757549 245.835083,18.040491 242.135239,17.125286 
	C239.755905,17.138069 237.376587,17.150852 234.117584,17.025812 
	C231.745026,17.073195 229.372482,17.120577 226.101776,17.026979 
	C223.828445,17.026979 221.555115,17.026979 219.227631,17.026979 
	C219.227631,32.957306 219.227631,48.353699 219.227631,63.832039 
	C222.043106,63.832039 224.521500,63.832039 227.879562,63.971611 
	C230.252167,63.927097 232.624786,63.882584 235.829056,63.979317 
	C238.254547,63.789658 240.680023,63.599998 243.898911,63.444508 
M194.947693,46.005890 
	C199.195938,46.005890 203.444199,46.005890 207.684937,46.005890 
	C207.684937,42.027195 207.684937,38.654743 207.684937,34.945644 
	C202.914307,34.945644 198.466904,34.945644 193.919876,34.088570 
	C193.953461,32.077377 193.987045,30.066183 194.950912,28.007101 
	C199.520828,28.007101 204.090744,28.007101 208.643890,28.007101 
	C208.643890,24.012402 208.643890,20.645704 208.643890,17.165907 
	C203.540649,17.165907 198.770798,17.165907 193.077255,17.026129 
	C188.802261,17.026129 184.527267,17.026129 179.999786,17.026129 
	C179.999786,32.813969 179.999786,48.147530 179.999786,63.833103 
	C184.807938,63.833103 189.405319,63.833103 194.928085,63.971184 
	C199.842697,63.971184 204.757324,63.971184 209.687592,63.971184 
	C209.687592,60.035713 209.687592,56.661774 209.687592,52.946655 
	C204.248947,52.946655 199.134796,52.946655 193.920090,52.089478 
	C193.953247,50.077759 193.986404,48.066036 194.947693,46.005890 
M45.102329,26.633793 
	C40.940052,18.047852 34.469929,14.607131 25.118752,17.661390 
	C25.118752,33.001549 25.118752,48.343433 25.118752,63.602570 
	C29.535353,63.602570 33.572292,63.602570 38.012569,63.602570 
	C38.012569,55.000221 38.012569,46.793041 38.012569,37.749615 
	C39.951660,40.019936 41.297794,41.596020 42.895851,43.820492 
	C47.194962,49.739624 51.420647,55.714764 55.856205,61.529819 
	C56.725365,62.669300 58.348843,63.739033 59.725502,63.884541 
	C62.973106,64.227791 66.281631,63.994663 69.703606,63.994663 
	C69.703606,48.117691 69.703606,32.739609 69.703606,17.331249 
	C65.342377,17.331249 61.283539,17.331249 56.913826,17.331249 
	C56.913826,25.415091 56.913826,33.174866 56.913826,40.934643 
	C56.568439,41.117878 56.223057,41.301113 55.877670,41.484344 
	C52.372730,36.727299 48.867794,31.970251 45.102329,26.633793 
M96.258797,17.050955 
	C84.242470,20.921444 78.217125,29.650091 78.891129,42.210693 
	C79.525993,54.041969 85.864250,61.631123 97.785530,64.121704 
	C108.584999,65.913986 117.436760,62.401947 122.532623,53.531937 
	C127.871750,44.238491 127.379196,34.638084 121.736633,25.654734 
	C116.956902,18.045057 107.053513,14.922652 96.258797,17.050955 
M144.268341,37.530113 
	C144.268341,46.279152 144.268341,55.028191 144.268341,63.656876 
	C149.494354,63.656876 153.903000,63.656876 158.741257,63.656876 
	C158.741257,51.715378 158.741257,40.123318 158.741257,27.892204 
	C163.376770,27.892204 167.589401,27.892204 171.717667,27.892204 
	C171.717667,23.970839 171.717667,20.700340 171.717667,17.384428 
	C158.089722,17.384428 144.727341,17.384428 131.406494,17.384428 
	C131.406494,21.052298 131.406494,24.312538 131.406494,28.094597 
	C135.756226,28.094597 139.833359,28.094597 144.268082,28.094597 
	C144.268082,31.262831 144.268082,33.901081 144.268341,37.530113 
z"/>
<path fill="#9355F8" opacity="1.000000" stroke="none" 
	d="
M144.268219,37.034721 
	C144.268082,33.901081 144.268082,31.262831 144.268082,28.094597 
	C139.833359,28.094597 135.756226,28.094597 131.406494,28.094597 
	C131.406494,24.312538 131.406494,21.052298 131.406494,17.384428 
	C144.727341,17.384428 158.089722,17.384428 171.717667,17.384428 
	C171.717667,20.700340 171.717667,23.970839 171.717667,27.892204 
	C167.589401,27.892204 163.376770,27.892204 158.741257,27.892204 
	C158.741257,40.123318 158.741257,51.715378 158.741257,63.656876 
	C153.903000,63.656876 149.494354,63.656876 144.268341,63.656876 
	C144.268341,55.028191 144.268341,46.279152 144.268219,37.034721 
z"/>
<path fill="#8D59FC" opacity="1.000000" stroke="none" 
	d="
M97.003342,17.110941 
	C107.053513,14.922652 116.956902,18.045057 121.736633,25.654734 
	C127.379196,34.638084 127.871750,44.238491 122.532623,53.531937 
	C117.436760,62.401947 108.584999,65.913986 97.393158,63.561234 
	C97.355949,59.268223 97.711113,55.535683 98.432175,51.875168 
	C102.810623,53.319420 106.348724,52.642605 108.885078,49.119057 
	C111.795845,45.075390 111.642174,35.735714 108.727188,31.566982 
	C105.924454,27.558771 102.093086,27.892105 97.922035,28.840668 
	C97.511864,24.666821 97.257599,20.888882 97.003342,17.110941 
z"/>
<path fill="#835EFE" opacity="1.000000" stroke="none" 
	d="
M45.362854,27.213203 
	C48.867794,31.970251 52.372730,36.727299 55.877670,41.484344 
	C56.223057,41.301113 56.568439,41.117878 56.913826,40.934643 
	C56.913826,33.174866 56.913826,25.415091 56.913826,17.331249 
	C61.283539,17.331249 65.342377,17.331249 69.703606,17.331249 
	C69.703606,32.739609 69.703606,48.117691 69.703606,63.994663 
	C66.281631,63.994663 62.973106,64.227791 59.725502,63.884541 
	C58.348843,63.739033 56.725365,62.669300 55.856205,61.529819 
	C51.420647,55.714764 47.194962,49.739624 43.026581,43.151760 
	C43.892490,37.393085 44.627670,32.303146 45.362854,27.213203 
z"/>
<path fill="#7D5FFC" opacity="1.000000" stroke="none" 
	d="
M45.232590,26.923498 
	C44.627670,32.303146 43.892490,37.393085 42.900620,42.827568 
	C41.297794,41.596020 39.951660,40.019936 38.012569,37.749615 
	C38.012569,46.793041 38.012569,55.000221 38.012569,63.602570 
	C33.572292,63.602570 29.535353,63.602570 25.118752,63.602570 
	C25.118752,48.343433 25.118752,33.001549 25.118752,17.661390 
	C34.469929,14.607131 40.940052,18.047852 45.232590,26.923498 
z"/>
<path fill="#AB54F2" opacity="1.000000" stroke="none" 
	d="
M194.002716,63.833103 
	C189.405319,63.833103 184.807938,63.833103 179.999786,63.833103 
	C179.999786,48.147530 179.999786,32.813969 179.999786,17.026129 
	C184.527267,17.026129 188.802261,17.026129 193.538925,17.544678 
	C194.007278,21.393812 194.013962,24.724401 194.020630,28.054989 
	C193.987045,30.066183 193.953461,32.077377 193.965790,34.979736 
	C194.014328,39.265373 194.016937,42.659847 194.019531,46.054317 
	C193.986404,48.066036 193.953247,50.077759 193.966461,52.975986 
	C194.009460,57.186031 194.006088,60.509567 194.002716,63.833103 
z"/>
<path fill="#875AFA" opacity="1.000000" stroke="none" 
	d="
M98.066277,51.803139 
	C97.711113,55.535683 97.355949,59.268223 97.002106,63.449169 
	C85.864250,61.631123 79.525993,54.041969 78.891129,42.210693 
	C78.217125,29.650091 84.242470,20.921444 96.631073,17.080948 
	C97.257599,20.888882 97.511864,24.666821 97.739304,29.131474 
	C92.244171,36.407761 92.378448,44.751774 98.066277,51.803139 
z"/>
<path fill="#CA52DD" opacity="1.000000" stroke="none" 
	d="
M226.999908,63.832039 
	C224.521500,63.832039 222.043106,63.832039 219.227631,63.832039 
	C219.227631,48.353699 219.227631,32.957306 219.227631,17.026979 
	C221.555115,17.026979 223.828445,17.026979 226.550873,17.555450 
	C226.999954,33.333294 226.999939,48.582668 226.999908,63.832039 
z"/>
<path fill="#E24FC7" opacity="1.000000" stroke="none" 
	d="
M252.004974,19.983395 
	C266.928864,27.485832 267.355469,49.509975 252.428558,59.751770 
	C252.051285,46.242466 252.028122,33.112930 252.004974,19.983395 
z"/>
<path fill="#D051D8" opacity="1.000000" stroke="none" 
	d="
M227.439728,63.901825 
	C226.999939,48.582668 226.999954,33.333294 226.999939,17.625942 
	C229.372482,17.120577 231.745026,17.073195 234.558029,17.538860 
	C234.998215,21.312277 234.997955,24.572647 234.569916,27.925518 
	C233.772415,28.465633 233.085251,28.909876 233.080444,29.361368 
	C233.003693,36.586021 232.957718,43.812645 233.091736,51.035351 
	C233.105148,51.756866 234.333405,52.455837 234.998611,53.609604 
	C234.998703,57.315311 234.998047,60.576694 234.997391,63.838074 
	C232.624786,63.882584 230.252167,63.927097 227.439728,63.901825 
z"/>
<path fill="#DC50CC" opacity="1.000000" stroke="none" 
	d="
M251.748505,19.729000 
	C252.028122,33.112930 252.051285,46.242466 252.097443,59.863205 
	C249.379929,61.384441 246.639420,62.414474 243.482162,62.931850 
	C242.979553,58.781918 242.893692,55.144642 243.039352,51.274734 
	C250.056702,44.125343 249.899628,35.999420 242.879578,28.909225 
	C242.940109,24.727671 242.973358,21.025553 243.006607,17.323433 
	C245.835083,18.040491 248.663544,18.757549 251.748505,19.729000 
z"/>
<path fill="#B853EA" opacity="1.000000" stroke="none" 
	d="
M194.465393,63.902145 
	C194.006088,60.509567 194.009460,57.186031 194.016739,53.404575 
	C199.134796,52.946655 204.248947,52.946655 209.687592,52.946655 
	C209.687592,56.661774 209.687592,60.035713 209.687592,63.971184 
	C204.757324,63.971184 199.842697,63.971184 194.465393,63.902145 
z"/>
<path fill="#B753E9" opacity="1.000000" stroke="none" 
	d="
M194.485779,28.031044 
	C194.013962,24.724401 194.007278,21.393812 194.000763,17.614567 
	C198.770798,17.165907 203.540649,17.165907 208.643890,17.165907 
	C208.643890,20.645704 208.643890,24.012402 208.643890,28.007101 
	C204.090744,28.007101 199.520828,28.007101 194.485779,28.031044 
z"/>
<path fill="#B753EA" opacity="1.000000" stroke="none" 
	d="
M194.483612,46.030106 
	C194.016937,42.659847 194.014328,39.265373 194.015610,35.408272 
	C198.466904,34.945644 202.914307,34.945644 207.684937,34.945644 
	C207.684937,38.654743 207.684937,42.027195 207.684937,46.005890 
	C203.444199,46.005890 199.195938,46.005890 194.483612,46.030106 
z"/>
<path fill="#D450D1" opacity="1.000000" stroke="none" 
	d="
M242.570923,17.224361 
	C242.973358,21.025553 242.940109,24.727671 242.494049,28.814489 
	C239.720078,28.743799 237.358887,28.288408 234.997711,27.833015 
	C234.997955,24.572647 234.998215,21.312277 234.997864,17.607771 
	C237.376587,17.150852 239.755905,17.138069 242.570923,17.224361 
z"/>
<path fill="#D44FCF" opacity="1.000000" stroke="none" 
	d="
M242.807831,51.507366 
	C242.893692,55.144642 242.979553,58.781918 243.085464,62.914764 
	C240.680023,63.599998 238.254547,63.789658 235.413223,63.908695 
	C234.998047,60.576694 234.998703,57.315311 235.400269,53.539017 
	C238.136703,52.518524 240.472275,52.012947 242.807831,51.507366 
z"/>
<path fill="#0A1828" opacity="1.000000" stroke="none" 
	d="
M98.432175,51.875168 
	C92.378448,44.751774 92.244171,36.407761 97.895218,29.527380 
	C102.093086,27.892105 105.924454,27.558771 108.727188,31.566982 
	C111.642174,35.735714 111.795845,45.075390 108.885078,49.119057 
	C106.348724,52.642605 102.810623,53.319420 98.432175,51.875168 
z"/>
<path fill="#0A1725" opacity="1.000000" stroke="none" 
	d="
M243.039352,51.274734 
	C240.472275,52.012947 238.136703,52.518524 235.399506,53.094688 
	C234.333405,52.455837 233.105148,51.756866 233.091736,51.035351 
	C232.957718,43.812645 233.003693,36.586021 233.080444,29.361368 
	C233.085251,28.909876 233.772415,28.465633 234.569916,27.925516 
	C237.358887,28.288408 239.720078,28.743799 242.466766,29.293926 
	C249.899628,35.999420 250.056702,44.125343 243.039352,51.274734 
z"/>
</svg>